<svg width="48" height="48" viewBox="0 0 48 48" fill="none" xmlns="http://www.w3.org/2000/svg">
<circle cx="24" cy="24" r="24" fill="#1877F2"/>
<path fill-rule="evenodd" clip-rule="evenodd" d="M20.6519 30.9644C20.6519 28.7751 20.6466 26.58 20.6573 24.3907C20.6573 24.0229 20.5662 23.9062 20.2234 23.9237C19.5966 23.9529 18.9698 23.9237 18.3431 23.9354C18.0913 23.9412 17.9949 23.8653 18.0002 23.5734C18.0109 22.2073 18.0109 20.8354 18.0002 19.4693C18.0002 19.2066 18.0699 19.119 18.3163 19.1248C18.9591 19.1424 19.602 19.1073 20.2395 19.1424C20.6091 19.1599 20.6894 19.0198 20.6787 18.6403C20.6573 17.6011 20.6573 16.5561 20.6787 15.5169C20.7055 14.2442 21.0162 13.0591 21.7126 12.0258C22.5912 10.7181 23.8394 10.1168 25.2858 10.0467C26.7643 9.97665 28.2536 10.0175 29.7321 10C29.9411 10 30 10.0759 30 10.2977C29.9946 11.6814 29.9946 13.065 30 14.4486C30 14.6938 29.9304 14.7697 29.7054 14.7638C28.9929 14.7522 28.2804 14.758 27.5679 14.7638C26.6197 14.7638 26.0519 15.3009 25.9929 16.3226C25.9447 17.1457 25.9822 17.9689 25.9608 18.7921C25.9554 19.084 26.1161 19.0665 26.2929 19.0665C27.375 19.0665 28.4625 19.0781 29.5447 19.0606C29.8607 19.0548 29.9679 19.1365 29.9304 19.4985C29.7964 20.8704 29.6786 22.2482 29.5714 23.626C29.5447 23.9354 29.4161 23.9938 29.1589 23.9938C28.3018 23.9821 27.45 23.9821 26.5929 23.9938C25.9769 23.9938 26.0358 23.8945 26.0358 24.5776C26.0358 28.8685 26.0251 33.1536 26.0465 37.4446C26.0465 37.8999 25.9394 38.0109 25.5322 37.9992C24.0644 37.97 22.5966 37.97 21.1234 37.9992C20.7109 38.0109 20.6412 37.8532 20.6466 37.4504C20.6627 35.2903 20.6519 33.1303 20.6519 30.9702V30.9644Z" fill="white"/>
</svg>
