<svg width="48" height="48" viewBox="0 0 48 48" fill="none" xmlns="http://www.w3.org/2000/svg">
<circle cx="24" cy="24" r="24" fill="#0A66C2"/>
<path d="M35.9981 34H31.443V26.8541C31.443 25.1501 31.4127 22.9565 29.0739 22.9565C26.7015 22.9565 26.3385 24.8131 26.3385 26.73V33.9995H21.7834V19.3047H26.1563V21.3129H26.2175C26.6551 20.5633 27.2875 19.9467 28.0473 19.5287C28.8071 19.1107 29.6658 18.9069 30.532 18.9391C35.1488 18.9391 36 21.9812 36 25.9386L35.9981 34ZM16.6438 17.296C16.121 17.2961 15.6099 17.1409 15.1752 16.85C14.7404 16.5591 14.4016 16.1456 14.2014 15.6618C14.0012 15.1779 13.9488 14.6455 14.0507 14.1319C14.1526 13.6182 14.4043 13.1463 14.7739 12.7759C15.1435 12.4055 15.6145 12.1532 16.1272 12.051C16.64 11.9487 17.1714 12.0011 17.6545 12.2014C18.1375 12.4017 18.5504 12.741 18.841 13.1764C19.1315 13.6119 19.2866 14.1238 19.2867 14.6475C19.2868 14.9953 19.2185 15.3396 19.0857 15.6609C18.9529 15.9822 18.7583 16.2741 18.5128 16.5201C18.2674 16.766 17.976 16.9611 17.6554 17.0942C17.3347 17.2274 16.991 17.2959 16.6438 17.296ZM18.9214 34H14.3616V19.3047H18.9214V34Z" fill="white"/>
</svg>
