<svg width="48" height="48" viewBox="0 0 48 48" fill="none" xmlns="http://www.w3.org/2000/svg">
<circle cx="24" cy="24" r="24" fill="#FEE500"/>
<path d="M23.99 12C16.2455 12 10 17.0193 10 23.1127C10 27.068 12.5981 30.5313 16.4954 32.5089L15.1763 37.458C15.1514 37.5322 15.1476 37.6118 15.1653 37.688C15.1829 37.7642 15.2213 37.834 15.2762 37.8896C15.3563 37.9605 15.4593 37.9997 15.566 38C15.6545 37.9929 15.7385 37.9577 15.8059 37.8996L21.4818 34.0549C22.3196 34.1711 23.1642 34.2313 24.01 34.2355C31.7445 34.2355 38 29.2162 38 23.1127C38 17.0092 31.7245 12 23.99 12Z" fill="#392020"/>
<path d="M14.8949 21.3558H13.366C13.1765 21.3613 12.9894 21.3126 12.8264 21.2152C12.7541 21.1697 12.6919 21.1096 12.6437 21.0388C12.5956 20.968 12.5625 20.8879 12.5466 20.8036C12.5418 20.7502 12.5418 20.6965 12.5466 20.6431C12.5419 20.5431 12.5612 20.4434 12.6029 20.3525C12.6447 20.2617 12.7076 20.1823 12.7864 20.1211C12.9607 19.9943 13.1709 19.9274 13.386 19.9303H17.9927C18.1837 19.9235 18.3722 19.9761 18.5323 20.0809C18.6064 20.1244 18.6699 20.1839 18.7183 20.2551C18.7667 20.3263 18.7987 20.4074 18.8121 20.4925C18.817 20.5426 18.817 20.593 18.8121 20.6431C18.8168 20.7445 18.7976 20.8456 18.7559 20.938C18.7142 21.0305 18.6513 21.1117 18.5723 21.175C18.4023 21.3016 18.1941 21.3655 17.9827 21.3558H16.5038V26.6361C16.5098 26.7486 16.4925 26.8611 16.4529 26.9665C16.4133 27.0719 16.3524 27.168 16.2739 27.2485C16.1987 27.3255 16.1083 27.3858 16.0085 27.4256C15.9087 27.4653 15.8017 27.4836 15.6944 27.4793C15.5067 27.4847 15.323 27.4245 15.1747 27.3088C15.0336 27.1957 14.9378 27.0353 14.9049 26.857C14.8951 26.7837 14.8951 26.7094 14.9049 26.6361L14.8949 21.3558Z" fill="#FEE500"/>
<path d="M19.2569 20.3198C19.3009 20.1546 19.4041 20.0116 19.5467 19.9183C19.6987 19.8317 19.8718 19.79 20.0463 19.7978H20.4261C20.6112 19.7911 20.7946 19.8363 20.9557 19.9283C21.1264 20.0436 21.2477 20.2192 21.2955 20.4202L23.294 26.0921C23.3458 26.24 23.3892 26.3909 23.4239 26.5439C23.4273 26.6074 23.4273 26.671 23.4239 26.7345C23.4273 26.8324 23.4094 26.9298 23.3714 27.0199C23.3334 27.1101 23.2763 27.1909 23.2041 27.2566C23.1341 27.3287 23.05 27.3855 22.9572 27.4235C22.8643 27.4615 22.7647 27.4798 22.6645 27.4774C22.5103 27.4928 22.3555 27.4557 22.225 27.3719C22.0945 27.2881 21.9959 27.1626 21.945 27.0157L21.5253 25.7809H18.8972L18.4775 27.0157C18.4278 27.1655 18.328 27.2934 18.195 27.3776C18.0619 27.4618 17.904 27.4971 17.748 27.4774C17.579 27.4818 17.4135 27.4288 17.2783 27.3268C17.1466 27.2216 17.0578 27.0717 17.0285 26.9052C17.0232 26.8485 17.0232 26.7913 17.0285 26.7345C17.0113 26.6349 17.0113 26.5331 17.0285 26.4335C17.0285 26.323 17.0984 26.2025 17.1384 26.0921L19.2569 20.3198ZM20.2562 21.635L19.3069 24.6465H21.1955L20.2562 21.635Z" fill="#FEE500"/>
<path d="M23.6493 20.641C23.6392 20.4158 23.7182 20.1956 23.8691 20.0287C23.9459 19.9509 24.038 19.8902 24.1396 19.8504C24.2411 19.8106 24.3498 19.7926 24.4587 19.7977C24.6459 19.7955 24.8286 19.8556 24.9784 19.9684C25.1171 20.0862 25.2093 20.25 25.2382 20.4302C25.248 20.5001 25.248 20.5711 25.2382 20.641V25.9214H27.9862C28.1767 25.9189 28.3639 25.971 28.5258 26.0719C28.5986 26.1169 28.6611 26.1769 28.7093 26.2478C28.7575 26.3187 28.7903 26.399 28.8056 26.4835C28.8056 26.4835 28.8056 26.5839 28.8056 26.6341C28.8104 26.7341 28.7911 26.8336 28.7493 26.9245C28.7076 27.0154 28.6446 27.0949 28.5658 27.1561C28.3916 27.2829 28.1813 27.3497 27.9662 27.3468H24.5886C24.3735 27.3607 24.1597 27.3045 23.9791 27.1863C23.8175 27.0649 23.7099 26.8847 23.6793 26.6843C23.672 26.574 23.672 26.4633 23.6793 26.353L23.6493 20.641Z" fill="#FEE500"/>
<path d="M28.9853 20.6403C28.9793 20.4157 29.0578 20.1971 29.2052 20.028C29.3549 19.8913 29.547 19.8105 29.7491 19.7996C29.9512 19.7886 30.1508 19.848 30.3144 19.9677C30.4562 20.0844 30.5519 20.2481 30.5842 20.4294C30.5891 20.4996 30.5891 20.5701 30.5842 20.6403V23.0998L33.1124 20.1684C33.2098 20.0684 33.3133 19.9746 33.4222 19.8874C33.5248 19.826 33.6425 19.7946 33.7619 19.797C33.9366 19.796 34.1074 19.8486 34.2516 19.9476C34.3195 19.9936 34.3775 20.0529 34.4222 20.1219C34.4668 20.1908 34.4972 20.2681 34.5114 20.3492C34.5154 20.369 34.5154 20.3896 34.5114 20.4095C34.5065 20.4326 34.5065 20.4565 34.5114 20.4797C34.511 20.5853 34.4835 20.6891 34.4314 20.7809C34.3784 20.8781 34.3147 20.9689 34.2416 21.0518L32.5828 22.8789L34.5813 25.9909V26.0912C34.6851 26.2351 34.766 26.3944 34.8212 26.5632V26.6133C34.8327 26.7296 34.816 26.847 34.7725 26.9554C34.729 27.0638 34.66 27.16 34.5713 27.2357C34.4046 27.3622 34.2007 27.4294 33.9918 27.4265C33.8529 27.4322 33.715 27.401 33.592 27.336C33.4589 27.2464 33.3493 27.1259 33.2723 26.9847L31.4136 23.9731L30.5242 24.9068V26.5831C30.5302 26.8078 30.4517 27.0264 30.3044 27.1955C30.2254 27.273 30.1315 27.3336 30.0284 27.3733C29.9253 27.413 29.8151 27.4311 29.7048 27.4265C29.5204 27.4303 29.3404 27.37 29.1952 27.2558C29.054 27.1427 28.9582 26.9824 28.9254 26.8041C28.9155 26.7308 28.9155 26.6564 28.9254 26.5831L28.9853 20.6403Z" fill="#FEE500"/>
</svg>
