<svg width="48" height="48" viewBox="0 0 48 48" fill="none" xmlns="http://www.w3.org/2000/svg">
<circle cx="24" cy="24" r="24" fill="#1D9BF0"/>
<path d="M20.1765 34.9989C29.9883 34.9989 35.3545 26.9206 35.3545 19.9155C35.3545 19.6857 35.3501 19.457 35.339 19.2305C36.3802 18.4817 37.2864 17.5482 38 16.486C37.044 16.9083 36.0151 17.1919 34.9363 17.3206C36.0372 16.6642 36.8836 15.6262 37.2819 14.3881C36.2507 14.9951 35.11 15.4371 33.8951 15.6746C32.9215 14.6443 31.5351 14 30.0016 14C27.0552 14 24.6664 16.3739 24.6664 19.3009C24.6664 19.7165 24.7129 20.1211 24.8047 20.5092C20.3713 20.2882 16.4401 18.1782 13.809 14.9709C13.351 15.7538 13.0865 16.6642 13.0865 17.6351C13.0865 19.4746 14.0281 21.0975 15.4609 22.0475C14.5857 22.0211 13.7636 21.7814 13.0445 21.3845C13.0434 21.4065 13.0434 21.4285 13.0434 21.4515C13.0434 24.019 14.8822 26.163 17.323 26.649C16.8749 26.77 16.4036 26.836 15.9168 26.836C15.5727 26.836 15.2385 26.8019 14.9143 26.7403C15.5937 28.847 17.5631 30.3787 19.8977 30.4226C18.0721 31.8443 15.7718 32.6921 13.2724 32.6921C12.842 32.6921 12.4171 32.6679 12 32.6184C14.3611 34.1215 17.1637 35 20.1776 35" fill="white"/>
</svg>
