<svg width="48" height="48" viewBox="0 0 48 48" fill="none" xmlns="http://www.w3.org/2000/svg">
<circle cx="24" cy="24" r="24" fill="black"/>
<path d="M34.2468 13.7634C33.1112 12.6244 31.6059 12 30.0046 12C28.4018 12 26.895 12.6243 25.7624 13.7618L20.4582 19.082C18.1189 21.4283 18.1189 25.2456 20.4567 27.5927C20.8347 27.9719 21.2651 28.2713 21.7152 28.5315L23.99 26.2513C23.474 26.1249 22.982 25.8692 22.5777 25.4651C22.2042 25.0905 21.9641 24.6376 21.8277 24.1622V24.1592C21.7796 23.9899 21.7475 23.8213 21.7294 23.6492C21.7279 23.6432 21.7279 23.6371 21.7279 23.6319C21.7121 23.4642 21.7076 23.2986 21.7188 23.1294C21.7203 23.1158 21.7218 23.103 21.7234 23.0896C21.7369 22.9264 21.7615 22.7647 21.8014 22.6051C21.8044 22.5915 21.8104 22.5787 21.8134 22.5653C21.9453 22.0703 22.1915 21.5986 22.5777 21.2105L27.8819 15.8903C28.4677 15.3043 29.2356 15.0101 30.0044 15.0101C30.7702 15.0101 31.5383 15.3043 32.1239 15.8903C33.2955 17.0655 33.2955 18.9717 32.1239 20.1468L30.2811 21.9951C30.3307 22.1246 30.3613 22.2584 30.4042 22.3886L30.4057 22.3916C30.4163 22.427 30.426 22.4623 30.438 22.4977C30.6945 23.335 30.8025 24.2024 30.762 25.0706V25.0721C30.759 25.1149 30.7544 25.1571 30.7499 25.2001C30.7364 25.4115 30.7282 25.6229 30.6973 25.8335L34.2458 22.2744C36.5846 19.9269 36.5846 16.1082 34.2468 13.7637L34.2468 13.7634ZM26.2853 19.467L24.0104 21.7487C24.5264 21.8751 25.0185 22.1294 25.4228 22.5334C25.7963 22.9095 26.0363 23.3609 26.1728 23.8371V23.8416C26.2208 24.0094 26.253 24.178 26.2711 24.3501C26.2726 24.3561 26.2726 24.3622 26.2726 24.3674C26.2891 24.5351 26.2928 24.7022 26.2816 24.87C26.2801 24.8851 26.2786 24.8978 26.2771 24.9113C26.2635 25.0745 26.2389 25.2347 26.1991 25.3951C26.1961 25.4102 26.19 25.4229 26.187 25.4364C26.0551 25.9314 25.809 26.4016 25.4219 26.7912L20.1177 32.11C19.5319 32.6976 18.7639 32.9918 17.9967 32.9918C17.2294 32.9918 16.4613 32.6976 15.8757 32.11C14.7041 30.9349 14.7041 29.0302 15.8757 27.8551L17.7184 26.0053C17.6689 25.8758 17.6382 25.742 17.5954 25.6119V25.6104C17.5833 25.5749 17.5736 25.5382 17.5616 25.5027C17.3051 24.667 17.1971 23.798 17.2391 22.9314V22.9299C17.2406 22.8855 17.2467 22.8434 17.2497 22.8004C17.2632 22.589 17.2714 22.3776 17.3022 22.167L13.7547 25.7268C11.4154 28.0731 11.4154 31.8904 13.7532 34.2366C14.8888 35.3741 16.394 36 17.9969 36C19.5997 36 21.105 35.3741 22.2391 34.2382L27.5433 28.918C29.8811 26.5717 29.8811 22.7532 27.5433 20.4082C27.1658 20.0285 26.7345 19.7284 26.2853 19.4673L26.2853 19.467Z" fill="white"/>
</svg>
